<svg xmlns="http://www.w3.org/2000/svg" xmlns:xlink="http://www.w3.org/1999/xlink" width="858" zoomAndPan="magnify" viewBox="0 0 643.5 146.249994" height="195" preserveAspectRatio="xMidYMid meet" version="1.0"><defs><g/><clipPath id="9e93309001"><path d="M 1.394531 7.59375 L 76.285156 7.59375 L 76.285156 82.488281 L 1.394531 82.488281 Z M 1.394531 7.59375 " clip-rule="nonzero"/></clipPath><clipPath id="9f175e57a6"><path d="M 118 69 L 437 69 L 437 69.382812 L 118 69.382812 Z M 280.375 69.382812 L 437 69.382812 L 437 75 L 280.375 75 Z M 118 69.382812 L 255.261719 69.382812 L 255.261719 75 L 118 75 Z M 118 69.382812 " clip-rule="nonzero"/></clipPath><clipPath id="6232de5126"><path d="M 118 69 L 437 69 L 437 69.382812 L 118 69.382812 Z M 280.375 69.382812 L 437 69.382812 L 437 75 L 280.375 75 Z M 118 69.382812 L 255.261719 69.382812 L 255.261719 75 L 118 75 Z M 118 69.382812 " clip-rule="nonzero"/></clipPath></defs><g clip-path="url(#9e93309001)"><path fill="#ffffff" d="M 76.324219 7.59375 L 76.324219 45.0625 L 38.847656 7.59375 Z M 1.394531 7.59375 L 38.847656 45.0625 L 38.847656 7.59375 Z M 76.324219 82.523438 L 76.324219 45.0625 L 38.847656 45.0625 Z M 38.847656 82.523438 L 38.847656 45.0625 L 1.394531 45.0625 Z M 38.847656 82.523438 " fill-opacity="1" fill-rule="nonzero"/></g><g clip-path="url(#9f175e57a6)"><path fill="#808080" d="M 118.664062 69.757812 L 436.519531 69.757812 L 436.519531 74.980469 L 118.664062 74.980469 Z M 118.664062 69.757812 " fill-opacity="1" fill-rule="nonzero"/></g><path stroke-linecap="butt" transform="matrix(0.746173, 0, 0, 0.746173, 118.662897, 21.25572)" fill="none" stroke-linejoin="miter" d="M 14.706799 61.001527 L 5.278486 61.001527 L 5.278486 4.33742 L 21.234898 4.33742 L 34.086929 49.557723 L 46.944195 4.33742 L 62.900606 4.33742 L 62.900606 61.001527 L 53.472293 61.001527 L 53.472293 11.006865 L 38.693767 61.001527 L 29.485326 61.001527 L 14.706799 11.389023 Z M 81.772937 61.818194 C 75.532765 61.818194 71.297615 59.535715 69.062252 54.981227 C 68.423577 53.651526 67.962893 52.143834 67.685436 50.463385 C 67.418448 48.772466 67.282337 46.542338 67.282337 43.773 L 67.282337 19.477164 L 76.040565 19.477164 L 76.040565 43.84629 C 76.040565 48.002915 76.763 50.876953 78.202637 52.457936 C 79.385757 53.803343 81.265138 54.473428 83.840779 54.473428 C 85.327531 54.473428 86.615352 54.237851 87.704241 53.766697 C 88.787895 53.295543 89.730202 52.635928 90.531164 51.787851 C 91.567703 50.651847 92.311079 49.117979 92.761292 47.181013 C 93.206271 45.249282 93.431378 42.699816 93.431378 39.532615 L 93.431378 19.477164 L 102.189605 19.477164 L 102.189605 61.001527 L 93.431378 61.001527 L 93.431378 55.363385 C 91.740459 57.635394 89.976249 59.279198 88.138749 60.294796 C 86.311719 61.310394 84.191527 61.818194 81.772937 61.818194 Z M 122.909906 61.818194 C 119.297726 61.818194 116.109585 60.902061 113.355952 59.080266 C 110.61279 57.242766 108.471657 54.70377 106.937789 51.463278 C 105.403922 48.212316 104.63437 44.479731 104.63437 40.275991 C 104.63437 36.019901 105.403922 32.28208 106.937789 29.067764 C 108.471657 25.842977 110.61279 23.314451 113.355952 21.487421 C 116.109585 19.649921 119.297726 18.733788 122.909906 18.733788 C 125.438432 18.733788 127.673795 19.178767 129.621231 20.073959 C 131.579138 20.969152 133.479458 22.654836 135.311723 25.136246 L 135.311723 4.33742 L 144.069951 4.33742 L 144.069951 61.001527 L 135.311723 61.001527 L 135.311723 55.363385 C 133.479458 57.77674 131.605313 59.457189 129.694522 60.399497 C 127.794201 61.34704 125.532663 61.818194 122.909906 61.818194 Z M 124.689821 54.237851 C 126.9723 54.237851 128.966851 53.646291 130.673475 52.457936 C 132.374864 51.274817 133.725505 49.631013 134.714928 47.526526 C 135.709587 45.411568 136.201681 42.992978 136.201681 40.275991 C 136.201681 37.553769 135.709587 35.145649 134.714928 33.041161 C 133.725505 30.936674 132.374864 29.29287 130.673475 28.109751 C 128.966851 26.910926 126.9723 26.314131 124.689821 26.314131 C 122.417812 26.314131 120.433731 26.921396 118.742812 28.146396 C 117.062363 29.350456 115.764072 31.009965 114.842704 33.114452 C 113.937042 35.213704 113.481593 37.600884 113.481593 40.275991 C 113.481593 42.945863 113.937042 45.338278 114.842704 47.453235 C 115.764072 49.557723 117.062363 51.211996 118.742812 52.421291 C 120.433731 53.630586 122.417812 54.237851 124.689821 54.237851 Z M 164.868777 61.818194 C 161.256597 61.818194 158.073691 60.902061 155.314823 59.080266 C 152.571661 57.242766 150.430528 54.70377 148.89666 51.463278 C 147.362793 48.212316 146.593241 44.479731 146.593241 40.275991 C 146.593241 36.019901 147.362793 32.28208 148.89666 29.067764 C 150.430528 25.842977 152.571661 23.314451 155.314823 21.487421 C 158.073691 19.649921 161.256597 18.733788 164.868777 18.733788 C 167.397303 18.733788 169.632666 19.178767 171.580102 20.073959 C 173.538008 20.969152 175.438329 22.654836 177.275829 25.136246 L 177.275829 4.33742 L 186.028821 4.33742 L 186.028821 61.001527 L 177.275829 61.001527 L 177.275829 55.363385 C 175.438329 57.77674 173.564184 59.457189 171.653393 60.399497 C 169.753072 61.34704 167.491534 61.818194 164.868777 61.818194 Z M 166.648692 54.237851 C 168.931171 54.237851 170.925722 53.646291 172.632346 52.457936 C 174.333735 51.274817 175.684376 49.631013 176.673799 47.526526 C 177.668458 45.411568 178.160552 42.992978 178.160552 40.275991 C 178.160552 37.553769 177.668458 35.145649 176.673799 33.041161 C 175.684376 30.936674 174.333735 29.29287 172.632346 28.109751 C 170.925722 26.910926 168.931171 26.314131 166.648692 26.314131 C 164.376683 26.314131 162.392602 26.921396 160.701683 28.146396 C 159.021234 29.350456 157.722943 31.009965 156.801575 33.114452 C 155.895913 35.213704 155.440464 37.600884 155.440464 40.275991 C 155.440464 42.945863 155.895913 45.338278 156.801575 47.453235 C 157.722943 49.557723 159.021234 51.211996 160.701683 52.421291 C 162.392602 53.630586 164.376683 54.237851 166.648692 54.237851 Z M 197.163758 76.156977 L 190.494313 76.156977 L 190.494313 68.649925 L 194.860339 68.649925 C 196.299976 68.649925 197.42551 68.440523 198.236942 68.016485 C 199.058844 67.592446 199.796985 66.540203 200.44613 64.859754 L 201.932883 60.854946 L 186.321984 19.477164 L 195.839292 19.477164 L 206.524015 50.609966 L 216.187905 19.477164 L 225.689509 19.477164 L 208.754144 67.021827 C 207.518674 70.476955 206.042392 72.864135 204.325297 74.183366 C 202.623908 75.497361 200.236729 76.156977 197.163758 76.156977 Z M 264.240366 61.001527 L 241.211412 61.001527 L 241.211412 4.33742 L 263.261413 4.33742 C 266.732247 4.33742 269.663871 4.724813 272.056286 5.494364 C 274.459171 6.25868 276.380432 7.35804 277.820068 8.797676 C 280.249128 11.163916 281.463658 14.404408 281.463658 18.513917 C 281.463658 21.780583 280.688872 24.576097 279.128829 26.910926 C 277.568786 29.23005 275.396243 30.695862 272.616435 31.297892 C 276.390902 31.732401 279.270175 33.130157 281.264727 35.485926 C 283.274983 37.846931 284.274877 40.925136 284.274877 44.736248 C 284.274877 47.311889 283.829898 49.578663 282.934706 51.536569 C 282.049983 53.494475 280.913979 55.091163 279.526692 56.321398 C 277.992825 57.661569 276.270496 58.666698 274.359705 59.331548 C 272.459384 59.996399 270.616649 60.441377 268.826264 60.671719 C 267.051585 60.891591 265.522952 61.001527 264.240366 61.001527 Z M 250.639724 12.802484 L 250.639724 28.251097 L 262.826905 28.251097 C 265.800409 28.251097 268.077653 27.570541 269.663871 26.204195 C 271.244854 24.837849 272.035346 22.921823 272.035346 20.456118 C 272.035346 19.210177 271.852119 18.157934 271.475196 17.299387 C 271.098273 16.430369 270.569534 15.676523 269.878508 15.032613 C 268.983316 14.189771 267.831606 13.608681 266.418144 13.294579 C 265.015153 12.970006 263.298059 12.802484 261.266862 12.802484 Z M 250.639724 36.051311 L 250.639724 52.531227 L 263.114832 52.531227 C 264.460238 52.531227 266.041221 52.421291 267.868251 52.206654 C 269.705751 51.976312 271.265794 51.269582 272.543145 50.086462 C 273.244641 49.442552 273.81526 48.625885 274.249769 47.636462 C 274.694748 46.647039 274.919854 45.432509 274.919854 43.992872 C 274.919854 42.055906 274.574342 40.558683 273.888551 39.49597 C 273.197525 38.433256 272.302333 37.653234 271.202974 37.155905 C 270.114085 36.658576 268.96761 36.349709 267.758315 36.229303 C 266.54902 36.108897 265.423486 36.051311 264.386948 36.051311 Z M 305.968896 61.818194 C 301.859387 61.818194 298.231502 60.902061 295.090476 59.080266 C 291.944215 57.242766 289.494215 54.688065 287.730005 51.426633 C 285.976266 48.149496 285.096778 44.359325 285.096778 40.056119 C 285.096778 35.899495 285.976266 32.214025 287.730005 28.994473 C 289.494215 25.769686 291.944215 23.256866 295.090476 21.456011 C 298.231502 19.639451 301.859387 18.733788 305.968896 18.733788 C 310.078404 18.733788 313.706289 19.639451 316.847315 21.456011 C 319.988341 23.256866 322.448811 25.769686 324.228726 28.994473 C 326.019111 32.214025 326.909068 35.899495 326.909068 40.056119 C 326.909068 44.312209 326.029581 48.076205 324.265371 51.353342 C 322.511632 54.620009 320.061632 57.179945 316.920606 59.043621 C 313.77958 60.891591 310.12552 61.818194 305.968896 61.818194 Z M 305.968896 54.164561 C 308.303725 54.164561 310.366332 53.557296 312.172422 52.353236 C 313.983747 51.128235 315.391973 49.458257 316.397102 47.327594 C 317.4127 45.202167 317.915264 42.778342 317.915264 40.056119 C 317.915264 37.433363 317.4127 35.082828 316.397102 33.004516 C 315.391973 30.926204 313.983747 29.29287 312.172422 28.109751 C 310.366332 26.910926 308.303725 26.314131 305.968896 26.314131 C 303.634066 26.314131 301.560989 26.900456 299.749664 28.073105 C 297.948809 29.23005 296.540583 30.852913 295.524984 32.931225 C 294.519856 35.009538 294.017292 37.386247 294.017292 40.056119 C 294.017292 42.825457 294.540796 45.280692 295.577335 47.41659 C 296.619108 49.547252 298.037805 51.201526 299.83866 52.384646 C 301.65522 53.573001 303.696887 54.164561 305.968896 54.164561 Z M 348.446036 61.818194 C 344.336527 61.818194 340.708642 60.902061 337.567616 59.080266 C 334.42659 57.242766 331.971355 54.688065 330.207145 51.426633 C 328.453406 48.149496 327.579154 44.359325 327.579154 40.056119 C 327.579154 35.899495 328.453406 32.214025 330.207145 28.994473 C 331.971355 25.769686 334.42659 23.256866 337.567616 21.456011 C 340.708642 19.639451 344.336527 18.733788 348.446036 18.733788 C 352.555545 18.733788 356.18343 19.639451 359.324455 21.456011 C 362.470716 23.256866 364.931187 25.769686 366.705866 28.994473 C 368.496251 32.214025 369.391443 35.899495 369.391443 40.056119 C 369.391443 44.312209 368.506721 48.076205 366.742512 51.353342 C 364.988772 54.620009 362.544007 57.179945 359.397746 59.043621 C 356.25672 60.891591 352.607895 61.818194 348.446036 61.818194 Z M 348.446036 54.164561 C 350.780865 54.164561 352.848707 53.557296 354.649562 52.353236 C 356.460887 51.128235 357.869113 49.458257 358.874242 47.327594 C 359.88984 45.202167 360.397639 42.778342 360.397639 40.056119 C 360.397639 37.433363 359.88984 35.082828 358.874242 33.004516 C 357.869113 30.926204 356.460887 29.29287 354.649562 28.109751 C 352.848707 26.910926 350.780865 26.314131 348.446036 26.314131 C 346.116442 26.314131 344.043364 26.900456 342.226804 28.073105 C 340.42595 29.23005 339.017723 30.852913 338.002125 32.931225 C 337.002231 35.009538 336.499667 37.386247 336.499667 40.056119 C 336.499667 42.825457 337.017937 45.280692 338.05971 47.41659 C 339.096249 49.547252 340.52018 51.201526 342.321035 52.384646 C 344.13236 53.573001 346.174027 54.164561 348.446036 54.164561 Z M 392.195292 61.001527 L 384.76153 61.001527 C 381.68856 61.001527 379.296145 60.300031 377.579051 58.89704 C 375.877662 57.483578 375.02435 54.991697 375.02435 51.426633 L 375.02435 26.764345 L 368.789414 26.764345 L 368.789414 19.477164 L 375.02435 19.477164 L 375.02435 4.33742 L 383.798282 4.33742 L 383.798282 19.477164 L 392.268582 19.477164 L 392.268582 26.764345 L 383.798282 26.764345 L 383.798282 48.960928 C 383.798282 50.301099 384.007684 51.421398 384.416017 52.31659 C 384.840056 53.196078 385.970825 53.635821 387.808325 53.635821 L 392.195292 53.635821 Z M 411.575421 61.818194 C 408.298284 61.818194 405.267194 61.284219 402.471681 60.221505 C 399.681403 59.158792 397.367514 57.562104 395.530014 55.431441 C 393.702984 53.306013 392.540804 50.578556 392.04871 47.254304 L 400.874993 47.254304 C 401.471788 49.589133 402.675848 51.416163 404.502878 52.730159 C 406.340378 54.038919 408.696148 54.688065 411.575421 54.688065 C 413.894545 54.688065 415.810571 54.232616 417.323499 53.311248 C 418.836426 52.395116 419.590272 51.09159 419.590272 49.411141 C 419.590272 47.976739 419.103413 46.87738 418.140165 46.113064 C 417.171682 45.338278 415.894332 44.715308 414.313349 44.244154 C 412.727131 43.773 411.025742 43.369902 409.198712 43.029624 C 407.408327 42.678876 405.607472 42.270542 403.796147 41.799389 C 401.995292 41.328235 400.325314 40.673854 398.791446 39.841482 C 397.257578 38.993405 396.027343 37.867871 395.111211 36.46488 C 394.205548 35.051418 393.750099 33.203448 393.750099 30.920969 C 393.750099 28.151631 394.462065 25.863917 395.891232 24.063062 C 397.330869 22.251737 399.25213 20.911566 401.655015 20.037314 C 404.063134 19.168297 406.675421 18.733788 409.491874 18.733788 C 414.192943 18.733788 418.140165 19.937848 421.328307 22.340733 C 424.532153 24.748853 426.505764 28.125456 427.243906 32.475777 L 418.993478 32.475777 C 418.349567 30.156653 417.176918 28.465734 415.475529 27.40302 C 413.768904 26.324601 411.774353 25.785392 409.491874 25.785392 C 407.266981 25.785392 405.508006 26.20943 404.214951 27.057507 C 402.932365 27.900349 402.29369 29.046823 402.29369 30.481225 C 402.29369 31.716695 402.754374 32.695648 403.686211 33.423319 C 404.628519 34.135285 405.858754 34.6902 407.366447 35.088063 C 408.879374 35.475456 410.528413 35.841909 412.318797 36.192657 C 414.145828 36.543405 415.999033 36.956974 417.883648 37.428128 C 419.768264 37.888811 421.495828 38.553662 423.050636 39.422679 C 424.610679 40.291696 425.867089 41.459111 426.825102 42.919688 C 427.793585 44.37503 428.275209 46.291056 428.275209 48.667765 C 428.275209 52.588813 426.814632 55.761249 423.888243 58.190309 C 420.972324 60.608899 416.86805 61.818194 411.575421 61.818194 Z M 411.575421 61.818194 " stroke="#808080" stroke-width="5.570985" stroke-opacity="1" stroke-miterlimit="4"/><g clip-path="url(#6232de5126)"><path fill="#ffffff" d="M 118.664062 69.757812 L 436.519531 69.757812 L 436.519531 74.980469 L 118.664062 74.980469 Z M 118.664062 69.757812 " fill-opacity="1" fill-rule="nonzero"/></g><g fill="#ffffff" fill-opacity="1"><g transform="translate(118.662897, 66.772298)"><g><path d="M 10.96875 0 L 3.9375 0 L 3.9375 -42.28125 L 15.84375 -42.28125 L 25.4375 -8.53125 L 35.03125 -42.28125 L 46.9375 -42.28125 L 46.9375 0 L 39.90625 0 L 39.90625 -37.296875 L 28.875 0 L 22 0 L 10.96875 -37.015625 Z M 10.96875 0 "/></g></g></g><g fill="#ffffff" fill-opacity="1"><g transform="translate(165.432459, 66.772298)"><g><path d="M 14.25 0.609375 C 9.59375 0.609375 6.429688 -1.085938 4.765625 -4.484375 C 4.285156 -5.484375 3.941406 -6.609375 3.734375 -7.859375 C 3.535156 -9.117188 3.4375 -10.785156 3.4375 -12.859375 L 3.4375 -30.984375 L 9.96875 -30.984375 L 9.96875 -12.796875 C 9.96875 -9.691406 10.503906 -7.550781 11.578125 -6.375 C 12.460938 -5.375 13.867188 -4.875 15.796875 -4.875 C 16.898438 -4.875 17.859375 -5.050781 18.671875 -5.40625 C 19.484375 -5.757812 20.1875 -6.25 20.78125 -6.875 C 21.5625 -7.71875 22.113281 -8.859375 22.4375 -10.296875 C 22.769531 -11.742188 22.9375 -13.648438 22.9375 -16.015625 L 22.9375 -30.984375 L 29.484375 -30.984375 L 29.484375 0 L 22.9375 0 L 22.9375 -4.21875 C 21.6875 -2.507812 20.375 -1.273438 19 -0.515625 C 17.632812 0.234375 16.050781 0.609375 14.25 0.609375 Z M 14.25 0.609375 "/></g></g></g><g fill="#ffffff" fill-opacity="1"><g transform="translate(194.302946, 66.772298)"><g><path d="M 16.078125 0.609375 C 13.378906 0.609375 11.003906 -0.0703125 8.953125 -1.4375 C 6.898438 -2.800781 5.300781 -4.691406 4.15625 -7.109375 C 3.007812 -9.535156 2.4375 -12.320312 2.4375 -15.46875 C 2.4375 -18.644531 3.007812 -21.429688 4.15625 -23.828125 C 5.300781 -26.234375 6.898438 -28.117188 8.953125 -29.484375 C 11.003906 -30.847656 13.378906 -31.53125 16.078125 -31.53125 C 17.960938 -31.53125 19.632812 -31.195312 21.09375 -30.53125 C 22.550781 -29.875 23.960938 -28.617188 25.328125 -26.765625 L 25.328125 -42.28125 L 31.875 -42.28125 L 31.875 0 L 25.328125 0 L 25.328125 -4.21875 C 23.960938 -2.40625 22.566406 -1.144531 21.140625 -0.4375 C 19.722656 0.257812 18.035156 0.609375 16.078125 0.609375 Z M 17.40625 -5.046875 C 19.101562 -5.046875 20.585938 -5.488281 21.859375 -6.375 C 23.140625 -7.257812 24.148438 -8.488281 24.890625 -10.0625 C 25.628906 -11.632812 26 -13.4375 26 -15.46875 C 26 -17.5 25.628906 -19.296875 24.890625 -20.859375 C 24.148438 -22.429688 23.140625 -23.660156 21.859375 -24.546875 C 20.585938 -25.429688 19.101562 -25.875 17.40625 -25.875 C 15.707031 -25.875 14.226562 -25.421875 12.96875 -24.515625 C 11.707031 -23.617188 10.734375 -22.382812 10.046875 -20.8125 C 9.367188 -19.238281 9.03125 -17.457031 9.03125 -15.46875 C 9.03125 -13.46875 9.367188 -11.679688 10.046875 -10.109375 C 10.734375 -8.546875 11.707031 -7.3125 12.96875 -6.40625 C 14.226562 -5.5 15.707031 -5.046875 17.40625 -5.046875 Z M 17.40625 -5.046875 "/></g></g></g><g fill="#ffffff" fill-opacity="1"><g transform="translate(225.611693, 66.772298)"><g><path d="M 16.078125 0.609375 C 13.378906 0.609375 11.003906 -0.0703125 8.953125 -1.4375 C 6.898438 -2.800781 5.300781 -4.691406 4.15625 -7.109375 C 3.007812 -9.535156 2.4375 -12.320312 2.4375 -15.46875 C 2.4375 -18.644531 3.007812 -21.429688 4.15625 -23.828125 C 5.300781 -26.234375 6.898438 -28.117188 8.953125 -29.484375 C 11.003906 -30.847656 13.378906 -31.53125 16.078125 -31.53125 C 17.960938 -31.53125 19.632812 -31.195312 21.09375 -30.53125 C 22.550781 -29.875 23.960938 -28.617188 25.328125 -26.765625 L 25.328125 -42.28125 L 31.875 -42.28125 L 31.875 0 L 25.328125 0 L 25.328125 -4.21875 C 23.960938 -2.40625 22.566406 -1.144531 21.140625 -0.4375 C 19.722656 0.257812 18.035156 0.609375 16.078125 0.609375 Z M 17.40625 -5.046875 C 19.101562 -5.046875 20.585938 -5.488281 21.859375 -6.375 C 23.140625 -7.257812 24.148438 -8.488281 24.890625 -10.0625 C 25.628906 -11.632812 26 -13.4375 26 -15.46875 C 26 -17.5 25.628906 -19.296875 24.890625 -20.859375 C 24.148438 -22.429688 23.140625 -23.660156 21.859375 -24.546875 C 20.585938 -25.429688 19.101562 -25.875 17.40625 -25.875 C 15.707031 -25.875 14.226562 -25.421875 12.96875 -24.515625 C 11.707031 -23.617188 10.734375 -22.382812 10.046875 -20.8125 C 9.367188 -19.238281 9.03125 -17.457031 9.03125 -15.46875 C 9.03125 -13.46875 9.367188 -11.679688 10.046875 -10.109375 C 10.734375 -8.546875 11.707031 -7.3125 12.96875 -6.40625 C 14.226562 -5.5 15.707031 -5.046875 17.40625 -5.046875 Z M 17.40625 -5.046875 "/></g></g></g><g fill="#ffffff" fill-opacity="1"><g transform="translate(256.92044, 66.772298)"><g><path d="M 8.875 11.3125 L 3.875 11.3125 L 3.875 5.703125 L 7.15625 5.703125 C 8.21875 5.703125 9.050781 5.546875 9.65625 5.234375 C 10.269531 4.921875 10.820312 4.132812 11.3125 2.875 L 12.421875 -0.109375 L 0.78125 -30.984375 L 7.875 -30.984375 L 15.84375 -7.765625 L 23.0625 -30.984375 L 30.15625 -30.984375 L 17.515625 4.484375 C 16.585938 7.078125 15.484375 8.863281 14.203125 9.84375 C 12.929688 10.820312 11.15625 11.3125 8.875 11.3125 Z M 8.875 11.3125 "/></g></g></g><g fill="#ffffff" fill-opacity="1"><g transform="translate(283.795981, 66.772298)"><g/></g></g><g fill="#ffffff" fill-opacity="1"><g transform="translate(294.711966, 66.772298)"><g><path d="M 21.109375 0 L 3.9375 0 L 3.9375 -42.28125 L 20.390625 -42.28125 C 22.984375 -42.28125 25.175781 -41.992188 26.96875 -41.421875 C 28.757812 -40.847656 30.191406 -40.03125 31.265625 -38.96875 C 33.066406 -37.1875 33.96875 -34.765625 33.96875 -31.703125 C 33.96875 -29.265625 33.382812 -27.175781 32.21875 -25.4375 C 31.0625 -23.695312 29.445312 -22.609375 27.375 -22.171875 C 30.1875 -21.835938 32.335938 -20.789062 33.828125 -19.03125 C 35.328125 -17.28125 36.078125 -14.984375 36.078125 -12.140625 C 36.078125 -10.210938 35.742188 -8.519531 35.078125 -7.0625 C 34.410156 -5.601562 33.5625 -4.410156 32.53125 -3.484375 C 31.382812 -2.492188 30.097656 -1.75 28.671875 -1.25 C 27.253906 -0.75 25.878906 -0.414062 24.546875 -0.25 C 23.222656 -0.0820312 22.078125 0 21.109375 0 Z M 10.96875 -35.96875 L 10.96875 -24.4375 L 20.0625 -24.4375 C 22.28125 -24.4375 23.976562 -24.941406 25.15625 -25.953125 C 26.34375 -26.972656 26.9375 -28.410156 26.9375 -30.265625 C 26.9375 -31.179688 26.796875 -31.960938 26.515625 -32.609375 C 26.242188 -33.253906 25.847656 -33.820312 25.328125 -34.3125 C 24.660156 -34.9375 23.800781 -35.367188 22.75 -35.609375 C 21.695312 -35.847656 20.414062 -35.96875 18.90625 -35.96875 Z M 10.96875 -18.625 L 10.96875 -6.3125 L 20.28125 -6.3125 C 21.28125 -6.3125 22.460938 -6.394531 23.828125 -6.5625 C 25.191406 -6.726562 26.359375 -7.253906 27.328125 -8.140625 C 27.835938 -8.628906 28.257812 -9.238281 28.59375 -9.96875 C 28.925781 -10.707031 29.09375 -11.613281 29.09375 -12.6875 C 29.09375 -14.132812 28.832031 -15.253906 28.3125 -16.046875 C 27.800781 -16.835938 27.140625 -17.414062 26.328125 -17.78125 C 25.515625 -18.15625 24.65625 -18.390625 23.75 -18.484375 C 22.84375 -18.578125 22 -18.625 21.21875 -18.625 Z M 10.96875 -18.625 "/></g></g></g><g fill="#ffffff" fill-opacity="1"><g transform="translate(329.06854, 66.772298)"><g><path d="M 17.90625 0.609375 C 14.832031 0.609375 12.125 -0.0703125 9.78125 -1.4375 C 7.4375 -2.800781 5.609375 -4.703125 4.296875 -7.140625 C 2.984375 -9.585938 2.328125 -12.414062 2.328125 -15.625 C 2.328125 -18.726562 2.984375 -21.476562 4.296875 -23.875 C 5.609375 -26.28125 7.4375 -28.15625 9.78125 -29.5 C 12.125 -30.851562 14.832031 -31.53125 17.90625 -31.53125 C 20.96875 -31.53125 23.671875 -30.851562 26.015625 -29.5 C 28.367188 -28.15625 30.207031 -26.28125 31.53125 -23.875 C 32.863281 -21.476562 33.53125 -18.726562 33.53125 -15.625 C 33.53125 -12.445312 32.875 -9.640625 31.5625 -7.203125 C 30.25 -4.765625 28.421875 -2.851562 26.078125 -1.46875 C 23.734375 -0.0820312 21.007812 0.609375 17.90625 0.609375 Z M 17.90625 -5.09375 C 19.632812 -5.09375 21.171875 -5.546875 22.515625 -6.453125 C 23.867188 -7.359375 24.925781 -8.601562 25.6875 -10.1875 C 26.445312 -11.78125 26.828125 -13.59375 26.828125 -15.625 C 26.828125 -17.582031 26.445312 -19.335938 25.6875 -20.890625 C 24.925781 -22.441406 23.867188 -23.660156 22.515625 -24.546875 C 21.171875 -25.429688 19.632812 -25.875 17.90625 -25.875 C 16.164062 -25.875 14.617188 -25.441406 13.265625 -24.578125 C 11.921875 -23.710938 10.867188 -22.503906 10.109375 -20.953125 C 9.359375 -19.398438 8.984375 -17.625 8.984375 -15.625 C 8.984375 -13.5625 9.367188 -11.734375 10.140625 -10.140625 C 10.921875 -8.554688 11.984375 -7.316406 13.328125 -6.421875 C 14.679688 -5.535156 16.207031 -5.09375 17.90625 -5.09375 Z M 17.90625 -5.09375 "/></g></g></g><g fill="#ffffff" fill-opacity="1"><g transform="translate(360.765198, 66.772298)"><g><path d="M 17.90625 0.609375 C 14.832031 0.609375 12.125 -0.0703125 9.78125 -1.4375 C 7.4375 -2.800781 5.609375 -4.703125 4.296875 -7.140625 C 2.984375 -9.585938 2.328125 -12.414062 2.328125 -15.625 C 2.328125 -18.726562 2.984375 -21.476562 4.296875 -23.875 C 5.609375 -26.28125 7.4375 -28.15625 9.78125 -29.5 C 12.125 -30.851562 14.832031 -31.53125 17.90625 -31.53125 C 20.96875 -31.53125 23.671875 -30.851562 26.015625 -29.5 C 28.367188 -28.15625 30.207031 -26.28125 31.53125 -23.875 C 32.863281 -21.476562 33.53125 -18.726562 33.53125 -15.625 C 33.53125 -12.445312 32.875 -9.640625 31.5625 -7.203125 C 30.25 -4.765625 28.421875 -2.851562 26.078125 -1.46875 C 23.734375 -0.0820312 21.007812 0.609375 17.90625 0.609375 Z M 17.90625 -5.09375 C 19.632812 -5.09375 21.171875 -5.546875 22.515625 -6.453125 C 23.867188 -7.359375 24.925781 -8.601562 25.6875 -10.1875 C 26.445312 -11.78125 26.828125 -13.59375 26.828125 -15.625 C 26.828125 -17.582031 26.445312 -19.335938 25.6875 -20.890625 C 24.925781 -22.441406 23.867188 -23.660156 22.515625 -24.546875 C 21.171875 -25.429688 19.632812 -25.875 17.90625 -25.875 C 16.164062 -25.875 14.617188 -25.441406 13.265625 -24.578125 C 11.921875 -23.710938 10.867188 -22.503906 10.109375 -20.953125 C 9.359375 -19.398438 8.984375 -17.625 8.984375 -15.625 C 8.984375 -13.5625 9.367188 -11.734375 10.140625 -10.140625 C 10.921875 -8.554688 11.984375 -7.316406 13.328125 -6.421875 C 14.679688 -5.535156 16.207031 -5.09375 17.90625 -5.09375 Z M 17.90625 -5.09375 "/></g></g></g><g fill="#ffffff" fill-opacity="1"><g transform="translate(392.461856, 66.772298)"><g><path d="M 18.84375 0 L 13.296875 0 C 11.003906 0 9.222656 -0.523438 7.953125 -1.578125 C 6.679688 -2.628906 6.046875 -4.488281 6.046875 -7.15625 L 6.046875 -25.546875 L 1.390625 -25.546875 L 1.390625 -30.984375 L 6.046875 -30.984375 L 6.046875 -42.28125 L 12.578125 -42.28125 L 12.578125 -30.984375 L 18.90625 -30.984375 L 18.90625 -25.546875 L 12.578125 -25.546875 L 12.578125 -8.984375 C 12.578125 -7.984375 12.734375 -7.148438 13.046875 -6.484375 C 13.359375 -5.816406 14.203125 -5.484375 15.578125 -5.484375 L 18.84375 -5.484375 Z M 18.84375 0 "/></g></g></g><g fill="#ffffff" fill-opacity="1"><g transform="translate(409.140999, 66.772298)"><g><path d="M 16.625 0.609375 C 14.1875 0.609375 11.921875 0.210938 9.828125 -0.578125 C 7.742188 -1.378906 6.019531 -2.570312 4.65625 -4.15625 C 3.289062 -5.75 2.421875 -7.78125 2.046875 -10.25 L 8.640625 -10.25 C 9.085938 -8.507812 9.992188 -7.148438 11.359375 -6.171875 C 12.722656 -5.191406 14.476562 -4.703125 16.625 -4.703125 C 18.363281 -4.703125 19.796875 -5.046875 20.921875 -5.734375 C 22.046875 -6.421875 22.609375 -7.390625 22.609375 -8.640625 C 22.609375 -9.710938 22.25 -10.535156 21.53125 -11.109375 C 20.8125 -11.679688 19.859375 -12.144531 18.671875 -12.5 C 17.492188 -12.851562 16.222656 -13.15625 14.859375 -13.40625 C 13.523438 -13.664062 12.179688 -13.972656 10.828125 -14.328125 C 9.484375 -14.679688 8.238281 -15.171875 7.09375 -15.796875 C 5.945312 -16.421875 5.03125 -17.257812 4.34375 -18.3125 C 3.664062 -19.363281 3.328125 -20.742188 3.328125 -22.453125 C 3.328125 -24.515625 3.863281 -26.21875 4.9375 -27.5625 C 6.007812 -28.914062 7.441406 -29.914062 9.234375 -30.5625 C 11.023438 -31.207031 12.972656 -31.53125 15.078125 -31.53125 C 18.585938 -31.53125 21.53125 -30.632812 23.90625 -28.84375 C 26.289062 -27.050781 27.765625 -24.53125 28.328125 -21.28125 L 22.171875 -21.28125 C 21.691406 -23.019531 20.8125 -24.285156 19.53125 -25.078125 C 18.257812 -25.867188 16.773438 -26.265625 15.078125 -26.265625 C 13.410156 -26.265625 12.097656 -25.953125 11.140625 -25.328125 C 10.179688 -24.703125 9.703125 -23.851562 9.703125 -22.78125 C 9.703125 -21.851562 10.050781 -21.117188 10.75 -20.578125 C 11.457031 -20.046875 12.375 -19.632812 13.5 -19.34375 C 14.625 -19.050781 15.851562 -18.773438 17.1875 -18.515625 C 18.550781 -18.253906 19.929688 -17.945312 21.328125 -17.59375 C 22.734375 -17.238281 24.019531 -16.738281 25.1875 -16.09375 C 26.351562 -15.445312 27.296875 -14.578125 28.015625 -13.484375 C 28.734375 -12.398438 29.09375 -10.972656 29.09375 -9.203125 C 29.09375 -6.285156 28.003906 -3.921875 25.828125 -2.109375 C 23.648438 -0.296875 20.582031 0.609375 16.625 0.609375 Z M 16.625 0.609375 "/></g></g></g><path fill="#808080" d="M 352.417969 123.269531 L 558.117188 123.269531 L 558.117188 128.492188 L 352.417969 128.492188 Z M 352.417969 123.269531 " fill-opacity="1" fill-rule="nonzero"/><path stroke-linecap="butt" transform="matrix(0.746173, 0, 0, 0.746173, 352.418462, 74.767958)" fill="none" stroke-linejoin="miter" d="M 27.106393 61.958844 C 24.389405 61.958844 21.661948 61.629036 18.929255 60.964186 C 16.212268 60.299335 13.709917 59.220916 11.422203 57.734164 C 9.150195 56.247412 7.244639 54.289506 5.710771 51.860446 C 4.176904 49.431386 3.213656 46.489291 2.826262 43.028928 L 12.401156 43.028928 C 13.045067 45.798266 14.128721 47.976044 15.667823 49.557027 C 17.201691 51.143245 18.997311 52.258309 21.049448 52.912689 C 23.10682 53.551365 25.174662 53.875937 27.252974 53.875937 C 30.577226 53.875937 33.278509 53.169206 35.356821 51.75051 C 37.435133 50.337048 38.476906 48.20115 38.476906 45.332347 C 38.476906 43.096983 37.796351 41.374654 36.430005 40.165359 C 35.063658 38.956064 33.288979 38.018991 31.116436 37.354141 C 28.938658 36.67882 26.588123 36.06632 24.059598 35.521876 C 21.787589 35.029782 19.510345 34.474867 17.227866 33.857132 C 14.950622 33.239397 12.87231 32.375615 10.987695 31.260551 C 9.113549 30.140251 7.605857 28.663969 6.454147 26.836939 C 5.318143 24.999439 4.752758 22.627965 4.752758 19.712045 C 4.752758 16.194096 5.600835 13.241532 7.307459 10.843882 C 9.024554 8.440998 11.348913 6.608732 14.285772 5.352322 C 17.238336 4.080207 20.567824 3.446766 24.279469 3.446766 C 27.797418 3.446766 31.116436 4.054031 34.231286 5.263326 C 37.351372 6.472621 40.000304 8.352002 42.178082 10.901468 C 44.36633 13.450934 45.753616 16.733306 46.345176 20.748584 L 36.916864 20.748584 C 36.121137 17.481917 34.540154 15.131383 32.184385 13.691746 C 29.839085 12.252109 27.158743 11.534908 24.132888 11.534908 C 21.112268 11.534908 18.693678 12.184053 16.882353 13.477109 C 15.081499 14.75446 14.181071 16.565785 14.181071 18.895379 C 14.181071 20.81664 14.809276 22.329567 16.065687 23.428926 C 17.332567 24.517815 18.986841 25.355422 21.012802 25.952217 C 23.043999 26.543777 25.253187 27.109161 27.635132 27.653606 C 30.001372 28.150935 32.378081 28.74773 34.760026 29.449226 C 37.14197 30.140251 39.314513 31.061619 41.288125 32.223799 C 43.272206 33.385978 44.863659 34.966961 46.072954 36.977218 C 47.292719 38.982239 47.905219 41.568351 47.905219 44.735552 C 47.905219 49.981065 46.099129 54.163865 42.481714 57.28395 C 38.869535 60.404036 33.744427 61.958844 27.106393 61.958844 Z M 69.442187 61.817498 C 65.285562 61.817498 61.657678 60.890895 58.563767 59.042925 C 55.469857 57.179249 53.051267 54.629783 51.307997 51.389292 C 49.580433 48.13833 48.716651 44.479035 48.716651 40.421876 C 48.716651 37.699654 49.145924 35.050722 50.004471 32.480316 C 50.873489 29.904675 52.161309 27.57508 53.867933 25.496768 C 55.585027 23.418456 57.71569 21.774652 60.265156 20.565358 C 62.819857 19.345592 65.803832 18.733092 69.222315 18.733092 C 72.776909 18.733092 76.127337 19.486939 79.268363 20.999866 C 82.425094 22.512794 84.97456 24.826683 86.921996 27.946768 C 88.879902 31.061619 89.858855 35.029782 89.858855 39.840786 L 89.858855 42.070915 L 57.637164 42.070915 C 57.73663 42.856171 57.904152 43.657133 58.144964 44.479035 C 58.401481 45.290466 58.694643 46.018137 59.034921 46.656813 C 60.024344 48.991642 61.448276 50.829142 63.296246 52.169313 C 65.154686 53.499014 67.280114 54.163865 69.662059 54.163865 C 72.284815 54.163865 74.483533 53.472839 76.258213 52.096023 C 78.048598 50.708736 79.320713 49.091108 80.069324 47.253608 L 89.115479 47.253608 C 88.330223 49.876364 87.079047 52.310659 85.361953 54.546023 C 83.655329 56.770916 81.493256 58.540361 78.8705 59.859592 C 76.247743 61.163117 73.106717 61.817498 69.442187 61.817498 Z M 58.144964 35.160658 L 80.71847 35.160658 C 80.671354 34.558628 80.535243 33.909483 80.304901 33.223692 C 80.08503 32.532666 79.781397 31.867816 79.399239 31.22914 C 78.404581 29.438756 77.027764 28.10382 75.263555 27.219097 C 73.509815 26.323905 71.593789 25.878926 69.515477 25.878926 C 65.055221 25.878926 61.762378 27.658841 59.631716 31.22914 C 59.186737 31.867816 58.846459 32.548371 58.616117 33.276042 C 58.401481 33.988008 58.244429 34.616213 58.144964 35.160658 Z M 100.936206 61.000831 L 92.157039 61.000831 L 92.157039 19.476469 L 100.936206 19.476469 L 100.936206 24.680101 C 102.663771 22.455208 104.506506 20.91087 106.464412 20.036618 C 108.422318 19.167601 110.689092 18.733092 113.264733 18.733092 L 114.222746 18.733092 L 114.222746 27.271448 L 111.992618 27.271448 C 108.668365 27.271448 106.118899 28.16664 104.34422 29.957025 C 102.072211 32.082452 100.936206 35.746983 100.936206 40.945381 Z M 133.597641 61.000831 L 126.467512 61.000831 L 111.165481 19.476469 L 120.688024 19.476469 L 129.969756 47.185552 L 139.54465 19.476469 L 148.972963 19.476469 Z M 153.653091 14.126254 C 152.119224 14.126254 150.784287 13.618455 149.648283 12.602857 C 148.512279 11.587258 147.941659 10.320378 147.941659 8.79698 C 147.941659 7.200292 148.512279 5.912472 149.648283 4.933519 C 150.784287 3.944095 152.119224 3.446766 153.653091 3.446766 C 155.239309 3.446766 156.584715 3.944095 157.69978 4.933519 C 158.809609 5.912472 159.364523 7.200292 159.364523 8.79698 C 159.364523 10.320378 158.809609 11.587258 157.69978 12.602857 C 156.584715 13.618455 155.239309 14.126254 153.653091 14.126254 Z M 158.040057 61.000831 L 149.266125 61.000831 L 149.266125 19.476469 L 158.040057 19.476469 Z M 180.985252 61.817498 C 176.922858 61.817498 173.336853 60.901365 170.216768 59.07957 C 167.096682 57.24207 164.667622 54.687369 162.924353 51.425937 C 161.196788 48.1488 160.333006 44.358629 160.333006 40.055423 C 160.333006 35.898799 161.196788 32.213329 162.924353 28.999012 C 164.667622 25.76899 167.086212 23.25617 170.180122 21.455315 C 173.274033 19.638755 176.875743 18.733092 180.985252 18.733092 C 185.880017 18.733092 190.036641 19.973798 193.444654 22.449973 C 196.863137 24.931384 199.04615 28.297516 199.988458 32.548371 L 190.486855 32.548371 C 189.801064 30.470059 188.617944 28.862901 186.953201 27.726897 C 185.293692 26.590892 183.309611 26.020272 180.985252 26.020272 C 177.519653 26.020272 174.69273 27.308093 172.520187 29.883734 C 170.342409 32.459376 169.25352 35.851684 169.25352 40.055423 C 169.25352 44.410979 170.342409 47.902753 172.520187 50.53598 C 174.69273 53.158736 177.519653 54.472732 180.985252 54.472732 C 183.560893 54.472732 185.691555 53.813117 187.366769 52.493886 C 189.047218 51.17989 190.162282 49.431386 190.706727 47.253608 L 200.224035 47.253608 C 199.281727 51.81333 197.062069 55.378395 193.570295 57.954036 C 190.078522 60.529677 185.880017 61.817498 180.985252 61.817498 Z M 221.085682 61.817498 C 216.929058 61.817498 213.301173 60.890895 210.207262 59.042925 C 207.113352 57.179249 204.694762 54.629783 202.956728 51.389292 C 201.223928 48.13833 200.360146 44.479035 200.360146 40.421876 C 200.360146 37.699654 200.78942 35.050722 201.647967 32.480316 C 202.522219 29.904675 203.804805 27.57508 205.511429 25.496768 C 207.228523 23.418456 209.364421 21.774652 211.913887 20.565358 C 214.463353 19.345592 217.447327 18.733092 220.871045 18.733092 C 224.42564 18.733092 227.770832 19.486939 230.917093 20.999866 C 234.068589 22.512794 236.62329 24.826683 238.565491 27.946768 C 240.523397 31.061619 241.502351 35.029782 241.502351 39.840786 L 241.502351 42.070915 L 209.285895 42.070915 C 209.380126 42.856171 209.547647 43.657133 209.788459 44.479035 C 210.044976 45.290466 210.343374 46.018137 210.678416 46.656813 C 211.673075 48.991642 213.091771 50.829142 214.939742 52.169313 C 216.803417 53.499014 218.923609 54.163865 221.305554 54.163865 C 223.928311 54.163865 226.127029 53.472839 227.906943 52.096023 C 229.692093 50.708736 230.964209 49.091108 231.71282 47.253608 L 240.758974 47.253608 C 239.973718 49.876364 238.722543 52.310659 237.005448 54.546023 C 235.304059 56.770916 233.141987 58.540361 230.513995 59.859592 C 227.891238 61.163117 224.750212 61.817498 221.085682 61.817498 Z M 209.788459 35.160658 L 232.3672 35.160658 C 232.31485 34.558628 232.178739 33.909483 231.948397 33.223692 C 231.728525 32.532666 231.430128 31.867816 231.042734 31.22914 C 230.053311 29.438756 228.67126 28.10382 226.90705 27.219097 C 225.153311 26.323905 223.237285 25.878926 221.158973 25.878926 C 216.698716 25.878926 213.405874 27.658841 211.280446 31.22914 C 210.830233 31.867816 210.489955 32.548371 210.264848 33.276042 C 210.044976 33.988008 209.887925 34.616213 209.788459 35.160658 Z M 261.264639 61.817498 C 257.987501 61.817498 254.956411 61.283523 252.160898 60.22081 C 249.37062 59.158096 247.056731 57.561408 245.219231 55.43598 C 243.392201 53.305317 242.230022 50.57786 241.737927 47.253608 L 250.56421 47.253608 C 251.161005 49.588437 252.365065 51.415467 254.192095 52.729463 C 256.029595 54.038224 258.385365 54.687369 261.264639 54.687369 C 263.583763 54.687369 265.499788 54.23192 267.012716 53.310553 C 268.525643 52.39442 269.27949 51.096129 269.27949 49.41568 C 269.27949 47.976044 268.797866 46.876684 267.829383 46.112368 C 266.8609 45.337582 265.583549 44.714612 264.002566 44.243458 C 262.416348 43.772304 260.714959 43.369206 258.887929 43.028928 C 257.097544 42.67818 255.296689 42.269846 253.485364 41.798693 C 251.68451 41.327539 250.014531 40.673158 248.480663 39.840786 C 246.946795 38.992709 245.71656 37.867175 244.800428 36.469419 C 243.894765 35.050722 243.439317 33.202752 243.439317 30.920273 C 243.439317 28.150935 244.151282 25.863221 245.580449 24.062366 C 247.020086 22.251041 248.941347 20.91087 251.344232 20.036618 C 253.752352 19.167601 256.364638 18.733092 259.181091 18.733092 C 263.88216 18.733092 267.829383 19.937152 271.017524 22.340037 C 274.22137 24.748157 276.194982 28.12476 276.933123 32.480316 L 268.682695 32.480316 C 268.038784 30.155957 266.866135 28.465038 265.164746 27.402324 C 263.458122 26.323905 261.46357 25.784696 259.181091 25.784696 C 256.956198 25.784696 255.197223 26.208734 253.904168 27.056811 C 252.621582 27.904888 251.982907 29.046127 251.982907 30.485764 C 251.982907 31.715999 252.443591 32.694953 253.375428 33.422624 C 254.317736 34.134589 255.547971 34.689504 257.055664 35.087367 C 258.568591 35.47476 260.21763 35.846449 262.008015 36.197196 C 263.835045 36.547944 265.68825 36.956278 267.572866 37.427432 C 269.462716 37.888115 271.185045 38.552966 272.739853 39.421983 C 274.299896 40.291 275.556306 41.458415 276.514319 42.924227 C 277.482802 44.374334 277.964426 46.29036 277.964426 48.672304 C 277.964426 52.588117 276.503849 55.760553 273.57746 58.189613 C 270.661541 60.608203 266.557267 61.817498 261.264639 61.817498 Z M 261.264639 61.817498 " stroke="#808080" stroke-width="5.570985" stroke-opacity="1" stroke-miterlimit="4"/><path fill="#ffffff" d="M 352.417969 123.269531 L 558.117188 123.269531 L 558.117188 128.492188 L 352.417969 128.492188 Z M 352.417969 123.269531 " fill-opacity="1" fill-rule="nonzero"/><g fill="#ffffff" fill-opacity="1"><g transform="translate(352.418462, 120.284536)"><g><path d="M 20.234375 0.71875 C 18.203125 0.71875 16.164062 0.46875 14.125 -0.03125 C 12.09375 -0.53125 10.226562 -1.332031 8.53125 -2.4375 C 6.832031 -3.539062 5.410156 -5 4.265625 -6.8125 C 3.117188 -8.625 2.398438 -10.820312 2.109375 -13.40625 L 9.25 -13.40625 C 9.726562 -11.34375 10.539062 -9.71875 11.6875 -8.53125 C 12.832031 -7.351562 14.171875 -6.523438 15.703125 -6.046875 C 17.242188 -5.566406 18.789062 -5.328125 20.34375 -5.328125 C 22.8125 -5.328125 24.820312 -5.851562 26.375 -6.90625 C 27.925781 -7.957031 28.703125 -9.550781 28.703125 -11.6875 C 28.703125 -13.351562 28.191406 -14.640625 27.171875 -15.546875 C 26.160156 -16.453125 24.84375 -17.15625 23.21875 -17.65625 C 21.59375 -18.15625 19.835938 -18.609375 17.953125 -19.015625 C 16.253906 -19.378906 14.554688 -19.789062 12.859375 -20.25 C 11.160156 -20.71875 9.609375 -21.363281 8.203125 -22.1875 C 6.796875 -23.019531 5.664062 -24.117188 4.8125 -25.484375 C 3.96875 -26.859375 3.546875 -28.632812 3.546875 -30.8125 C 3.546875 -33.4375 4.179688 -35.644531 5.453125 -37.4375 C 6.734375 -39.226562 8.472656 -40.59375 10.671875 -41.53125 C 12.867188 -42.476562 15.351562 -42.953125 18.125 -42.953125 C 20.75 -42.953125 23.222656 -42.5 25.546875 -41.59375 C 27.878906 -40.6875 29.859375 -39.28125 31.484375 -37.375 C 33.109375 -35.476562 34.140625 -33.03125 34.578125 -30.03125 L 27.546875 -30.03125 C 26.953125 -32.476562 25.773438 -34.234375 24.015625 -35.296875 C 22.265625 -36.367188 20.265625 -36.90625 18.015625 -36.90625 C 15.753906 -36.90625 13.945312 -36.425781 12.59375 -35.46875 C 11.25 -34.507812 10.578125 -33.160156 10.578125 -31.421875 C 10.578125 -29.984375 11.046875 -28.859375 11.984375 -28.046875 C 12.929688 -27.234375 14.160156 -26.601562 15.671875 -26.15625 C 17.191406 -25.71875 18.835938 -25.296875 20.609375 -24.890625 C 22.390625 -24.515625 24.164062 -24.066406 25.9375 -23.546875 C 27.707031 -23.035156 29.332031 -22.34375 30.8125 -21.46875 C 32.289062 -20.601562 33.484375 -19.421875 34.390625 -17.921875 C 35.296875 -16.429688 35.75 -14.503906 35.75 -12.140625 C 35.75 -8.222656 34.398438 -5.097656 31.703125 -2.765625 C 29.003906 -0.441406 25.179688 0.71875 20.234375 0.71875 Z M 20.234375 0.71875 "/></g></g></g><g fill="#ffffff" fill-opacity="1"><g transform="translate(386.442551, 120.284536)"><g><path d="M 17.796875 0.609375 C 14.691406 0.609375 11.984375 -0.0820312 9.671875 -1.46875 C 7.359375 -2.851562 5.554688 -4.753906 4.265625 -7.171875 C 2.972656 -9.597656 2.328125 -12.328125 2.328125 -15.359375 C 2.328125 -17.390625 2.648438 -19.363281 3.296875 -21.28125 C 3.941406 -23.195312 4.898438 -24.929688 6.171875 -26.484375 C 7.453125 -28.035156 9.039062 -29.265625 10.9375 -30.171875 C 12.84375 -31.078125 15.070312 -31.53125 17.625 -31.53125 C 20.28125 -31.53125 22.78125 -30.96875 25.125 -29.84375 C 27.476562 -28.71875 29.382812 -26.988281 30.84375 -24.65625 C 32.300781 -22.332031 33.03125 -19.378906 33.03125 -15.796875 L 33.03125 -14.125 L 8.984375 -14.125 C 9.054688 -13.539062 9.179688 -12.941406 9.359375 -12.328125 C 9.546875 -11.722656 9.769531 -11.179688 10.03125 -10.703125 C 10.769531 -8.960938 11.832031 -7.59375 13.21875 -6.59375 C 14.601562 -5.59375 16.179688 -5.09375 17.953125 -5.09375 C 19.910156 -5.09375 21.554688 -5.609375 22.890625 -6.640625 C 24.222656 -7.679688 25.164062 -8.882812 25.71875 -10.25 L 32.484375 -10.25 C 31.890625 -8.289062 30.953125 -6.476562 29.671875 -4.8125 C 28.398438 -3.15625 26.785156 -1.835938 24.828125 -0.859375 C 22.867188 0.117188 20.523438 0.609375 17.796875 0.609375 Z M 9.359375 -19.28125 L 26.21875 -19.28125 C 26.175781 -19.726562 26.070312 -20.207031 25.90625 -20.71875 C 25.738281 -21.238281 25.507812 -21.738281 25.21875 -22.21875 C 24.476562 -23.550781 23.453125 -24.550781 22.140625 -25.21875 C 20.828125 -25.882812 19.394531 -26.21875 17.84375 -26.21875 C 14.519531 -26.21875 12.0625 -24.882812 10.46875 -22.21875 C 10.132812 -21.738281 9.882812 -21.226562 9.71875 -20.6875 C 9.5625 -20.15625 9.441406 -19.6875 9.359375 -19.28125 Z M 9.359375 -19.28125 "/></g></g></g><g fill="#ffffff" fill-opacity="1"><g transform="translate(417.585055, 120.284536)"><g><path d="M 10.140625 0 L 3.609375 0 L 3.609375 -30.984375 L 10.140625 -30.984375 L 10.140625 -27.09375 C 11.429688 -28.757812 12.804688 -29.914062 14.265625 -30.5625 C 15.722656 -31.207031 17.414062 -31.53125 19.34375 -31.53125 L 20.0625 -31.53125 L 20.0625 -25.15625 L 18.40625 -25.15625 C 15.925781 -25.15625 14.019531 -24.492188 12.6875 -23.171875 C 10.988281 -21.578125 10.140625 -18.84375 10.140625 -14.96875 Z M 10.140625 0 "/></g></g></g><g fill="#ffffff" fill-opacity="1"><g transform="translate(434.596706, 120.284536)"><g><path d="M 17.515625 0 L 12.1875 0 L 0.78125 -30.984375 L 7.875 -30.984375 L 14.796875 -10.3125 L 21.953125 -30.984375 L 28.984375 -30.984375 Z M 17.515625 0 "/></g></g></g><g fill="#ffffff" fill-opacity="1"><g transform="translate(460.197698, 120.284536)"><g><path d="M 6.875 -34.96875 C 5.726562 -34.96875 4.726562 -35.347656 3.875 -36.109375 C 3.03125 -36.867188 2.609375 -37.820312 2.609375 -38.96875 C 2.609375 -40.144531 3.03125 -41.101562 3.875 -41.84375 C 4.726562 -42.582031 5.726562 -42.953125 6.875 -42.953125 C 8.050781 -42.953125 9.054688 -42.582031 9.890625 -41.84375 C 10.722656 -41.101562 11.140625 -40.144531 11.140625 -38.96875 C 11.140625 -37.820312 10.722656 -36.867188 9.890625 -36.109375 C 9.054688 -35.347656 8.050781 -34.96875 6.875 -34.96875 Z M 10.140625 0 L 3.609375 0 L 3.609375 -30.984375 L 10.140625 -30.984375 Z M 10.140625 0 "/></g></g></g><g fill="#ffffff" fill-opacity="1"><g transform="translate(469.728305, 120.284536)"><g><path d="M 17.734375 0.609375 C 14.703125 0.609375 12.019531 -0.0703125 9.6875 -1.4375 C 7.363281 -2.800781 5.554688 -4.703125 4.265625 -7.140625 C 2.972656 -9.585938 2.328125 -12.414062 2.328125 -15.625 C 2.328125 -18.726562 2.972656 -21.476562 4.265625 -23.875 C 5.554688 -26.28125 7.359375 -28.15625 9.671875 -29.5 C 11.984375 -30.851562 14.671875 -31.53125 17.734375 -31.53125 C 21.390625 -31.53125 24.492188 -30.609375 27.046875 -28.765625 C 29.597656 -26.921875 31.222656 -24.40625 31.921875 -21.21875 L 24.828125 -21.21875 C 24.304688 -22.769531 23.425781 -23.972656 22.1875 -24.828125 C 20.957031 -25.679688 19.472656 -26.109375 17.734375 -26.109375 C 15.148438 -26.109375 13.046875 -25.144531 11.421875 -23.21875 C 9.796875 -21.300781 8.984375 -18.769531 8.984375 -15.625 C 8.984375 -12.375 9.796875 -9.769531 11.421875 -7.8125 C 13.046875 -5.851562 15.148438 -4.875 17.734375 -4.875 C 19.648438 -4.875 21.238281 -5.363281 22.5 -6.34375 C 23.757812 -7.320312 24.59375 -8.625 25 -10.25 L 32.09375 -10.25 C 31.382812 -6.851562 29.726562 -4.191406 27.125 -2.265625 C 24.519531 -0.347656 21.390625 0.609375 17.734375 0.609375 Z M 17.734375 0.609375 "/></g></g></g><g fill="#ffffff" fill-opacity="1"><g transform="translate(499.59626, 120.284536)"><g><path d="M 17.796875 0.609375 C 14.691406 0.609375 11.984375 -0.0820312 9.671875 -1.46875 C 7.359375 -2.851562 5.554688 -4.753906 4.265625 -7.171875 C 2.972656 -9.597656 2.328125 -12.328125 2.328125 -15.359375 C 2.328125 -17.390625 2.648438 -19.363281 3.296875 -21.28125 C 3.941406 -23.195312 4.898438 -24.929688 6.171875 -26.484375 C 7.453125 -28.035156 9.039062 -29.265625 10.9375 -30.171875 C 12.84375 -31.078125 15.070312 -31.53125 17.625 -31.53125 C 20.28125 -31.53125 22.78125 -30.96875 25.125 -29.84375 C 27.476562 -28.71875 29.382812 -26.988281 30.84375 -24.65625 C 32.300781 -22.332031 33.03125 -19.378906 33.03125 -15.796875 L 33.03125 -14.125 L 8.984375 -14.125 C 9.054688 -13.539062 9.179688 -12.941406 9.359375 -12.328125 C 9.546875 -11.722656 9.769531 -11.179688 10.03125 -10.703125 C 10.769531 -8.960938 11.832031 -7.59375 13.21875 -6.59375 C 14.601562 -5.59375 16.179688 -5.09375 17.953125 -5.09375 C 19.910156 -5.09375 21.554688 -5.609375 22.890625 -6.640625 C 24.222656 -7.679688 25.164062 -8.882812 25.71875 -10.25 L 32.484375 -10.25 C 31.890625 -8.289062 30.953125 -6.476562 29.671875 -4.8125 C 28.398438 -3.15625 26.785156 -1.835938 24.828125 -0.859375 C 22.867188 0.117188 20.523438 0.609375 17.796875 0.609375 Z M 9.359375 -19.28125 L 26.21875 -19.28125 C 26.175781 -19.726562 26.070312 -20.207031 25.90625 -20.71875 C 25.738281 -21.238281 25.507812 -21.738281 25.21875 -22.21875 C 24.476562 -23.550781 23.453125 -24.550781 22.140625 -25.21875 C 20.828125 -25.882812 19.394531 -26.21875 17.84375 -26.21875 C 14.519531 -26.21875 12.0625 -24.882812 10.46875 -22.21875 C 10.132812 -21.738281 9.882812 -21.226562 9.71875 -20.6875 C 9.5625 -20.15625 9.441406 -19.6875 9.359375 -19.28125 Z M 9.359375 -19.28125 "/></g></g></g><g fill="#ffffff" fill-opacity="1"><g transform="translate(530.738763, 120.284536)"><g><path d="M 16.625 0.609375 C 14.1875 0.609375 11.921875 0.210938 9.828125 -0.578125 C 7.742188 -1.378906 6.019531 -2.570312 4.65625 -4.15625 C 3.289062 -5.75 2.421875 -7.78125 2.046875 -10.25 L 8.640625 -10.25 C 9.085938 -8.507812 9.992188 -7.148438 11.359375 -6.171875 C 12.722656 -5.191406 14.476562 -4.703125 16.625 -4.703125 C 18.363281 -4.703125 19.796875 -5.046875 20.921875 -5.734375 C 22.046875 -6.421875 22.609375 -7.390625 22.609375 -8.640625 C 22.609375 -9.710938 22.25 -10.535156 21.53125 -11.109375 C 20.8125 -11.679688 19.859375 -12.144531 18.671875 -12.5 C 17.492188 -12.851562 16.222656 -13.15625 14.859375 -13.40625 C 13.523438 -13.664062 12.179688 -13.972656 10.828125 -14.328125 C 9.484375 -14.679688 8.238281 -15.171875 7.09375 -15.796875 C 5.945312 -16.421875 5.03125 -17.257812 4.34375 -18.3125 C 3.664062 -19.363281 3.328125 -20.742188 3.328125 -22.453125 C 3.328125 -24.515625 3.863281 -26.21875 4.9375 -27.5625 C 6.007812 -28.914062 7.441406 -29.914062 9.234375 -30.5625 C 11.023438 -31.207031 12.972656 -31.53125 15.078125 -31.53125 C 18.585938 -31.53125 21.53125 -30.632812 23.90625 -28.84375 C 26.289062 -27.050781 27.765625 -24.53125 28.328125 -21.28125 L 22.171875 -21.28125 C 21.691406 -23.019531 20.8125 -24.285156 19.53125 -25.078125 C 18.257812 -25.867188 16.773438 -26.265625 15.078125 -26.265625 C 13.410156 -26.265625 12.097656 -25.953125 11.140625 -25.328125 C 10.179688 -24.703125 9.703125 -23.851562 9.703125 -22.78125 C 9.703125 -21.851562 10.050781 -21.117188 10.75 -20.578125 C 11.457031 -20.046875 12.375 -19.632812 13.5 -19.34375 C 14.625 -19.050781 15.851562 -18.773438 17.1875 -18.515625 C 18.550781 -18.253906 19.929688 -17.945312 21.328125 -17.59375 C 22.734375 -17.238281 24.019531 -16.738281 25.1875 -16.09375 C 26.351562 -15.445312 27.296875 -14.578125 28.015625 -13.484375 C 28.734375 -12.398438 29.09375 -10.972656 29.09375 -9.203125 C 29.09375 -6.285156 28.003906 -3.921875 25.828125 -2.109375 C 23.648438 -0.296875 20.582031 0.609375 16.625 0.609375 Z M 16.625 0.609375 "/></g></g></g></svg>